<?xml version="1.0" encoding="utf-8" standalone="no"?>
<!DOCTYPE svg PUBLIC "-//W3C//DTD SVG 1.1//EN"
  "http://www.w3.org/Graphics/SVG/1.1/DTD/svg11.dtd">
<svg xmlns:xlink="http://www.w3.org/1999/xlink" width="510.23622pt" height="283.464567pt" viewBox="0 0 510.23622 283.464567" xmlns="http://www.w3.org/2000/svg" version="1.1">
 <metadata>
  <rdf:RDF xmlns:dc="http://purl.org/dc/elements/1.1/" xmlns:cc="http://creativecommons.org/ns#" xmlns:rdf="http://www.w3.org/1999/02/22-rdf-syntax-ns#">
   <cc:Work>
    <dc:type rdf:resource="http://purl.org/dc/dcmitype/StillImage"/>
    <dc:date>2026-08-27T16:35:40.015229</dc:date>
    <dc:format>image/svg+xml</dc:format>
    <dc:creator>
     <cc:Agent>
      <dc:title>Matplotlib v3.11.0, https://matplotlib.org/</dc:title>
     </cc:Agent>
    </dc:creator>
   </cc:Work>
  </rdf:RDF>
 </metadata>
 <defs>
  <style type="text/css">*{stroke-linejoin: round; stroke-linecap: butt}</style>
 </defs>
 <g id="figure_1">
  <g id="patch_1">
   <path d="M 0 283.464567
L 510.23622 283.464567
L 510.23622 0
L 0 0
z
" style="fill: #ffffff"/>
  </g>
  <g id="axes_1">
   <g id="patch_2">
    <path d="M 71.433071 206.929134
L 489.826772 206.929134
L 489.826772 56.692913
L 71.433071 56.692913
z
" style="fill: #ffffff"/>
   </g>
   <g id="matplotlib.axis_1">
    <g id="xtick_1">
     <g id="line2d_1">
      <path d="M 112.110236 206.929134
L 112.110236 56.692913
" clip-path="url(#p05f9c80c51)" style="fill: none; stroke: #e5e7eb; stroke-width: 0.35; stroke-linecap: square"/>
     </g>
     <g id="line2d_2">
      <defs>
       <path id="mac6590bbbe" d="M 0 0
L 0 3
" style="stroke: #333333; stroke-width: 0.75"/>
      </defs>
      <g>
       <use xlink:href="#mac6590bbbe" x="112.110236" y="206.929134" style="fill: #333333; stroke: #333333; stroke-width: 0.75"/>
      </g>
     </g>
     <g id="text_1">
      <text style="font-size: 8px; font-family: 'Times New Roman', 'SimSun'; text-anchor: middle; fill: #333333" x="112.110236" y="218.976009" transform="rotate(-0 112.110236 218.976009)">200</text>
     </g>
    </g>
    <g id="xtick_2">
     <g id="line2d_3">
      <path d="M 170.220472 206.929134
L 170.220472 56.692913
" clip-path="url(#p05f9c80c51)" style="fill: none; stroke: #e5e7eb; stroke-width: 0.35; stroke-linecap: square"/>
     </g>
     <g id="line2d_4">
      <g>
       <use xlink:href="#mac6590bbbe" x="170.220472" y="206.929134" style="fill: #333333; stroke: #333333; stroke-width: 0.75"/>
      </g>
     </g>
     <g id="text_2">
      <text style="font-size: 8px; font-family: 'Times New Roman', 'SimSun'; text-anchor: middle; fill: #333333" x="170.220472" y="218.976009" transform="rotate(-0 170.220472 218.976009)">300</text>
     </g>
    </g>
    <g id="xtick_3">
     <g id="line2d_5">
      <path d="M 228.330709 206.929134
L 228.330709 56.692913
" clip-path="url(#p05f9c80c51)" style="fill: none; stroke: #e5e7eb; stroke-width: 0.35; stroke-linecap: square"/>
     </g>
     <g id="line2d_6">
      <g>
       <use xlink:href="#mac6590bbbe" x="228.330709" y="206.929134" style="fill: #333333; stroke: #333333; stroke-width: 0.75"/>
      </g>
     </g>
     <g id="text_3">
      <text style="font-size: 8px; font-family: 'Times New Roman', 'SimSun'; text-anchor: middle; fill: #333333" x="228.330709" y="218.976009" transform="rotate(-0 228.330709 218.976009)">400</text>
     </g>
    </g>
    <g id="xtick_4">
     <g id="line2d_7">
      <path d="M 286.440945 206.929134
L 286.440945 56.692913
" clip-path="url(#p05f9c80c51)" style="fill: none; stroke: #e5e7eb; stroke-width: 0.35; stroke-linecap: square"/>
     </g>
     <g id="line2d_8">
      <g>
       <use xlink:href="#mac6590bbbe" x="286.440945" y="206.929134" style="fill: #333333; stroke: #333333; stroke-width: 0.75"/>
      </g>
     </g>
     <g id="text_4">
      <text style="font-size: 8px; font-family: 'Times New Roman', 'SimSun'; text-anchor: middle; fill: #333333" x="286.440945" y="218.976009" transform="rotate(-0 286.440945 218.976009)">500</text>
     </g>
    </g>
    <g id="xtick_5">
     <g id="line2d_9">
      <path d="M 344.551181 206.929134
L 344.551181 56.692913
" clip-path="url(#p05f9c80c51)" style="fill: none; stroke: #e5e7eb; stroke-width: 0.35; stroke-linecap: square"/>
     </g>
     <g id="line2d_10">
      <g>
       <use xlink:href="#mac6590bbbe" x="344.551181" y="206.929134" style="fill: #333333; stroke: #333333; stroke-width: 0.75"/>
      </g>
     </g>
     <g id="text_5">
      <text style="font-size: 8px; font-family: 'Times New Roman', 'SimSun'; text-anchor: middle; fill: #333333" x="344.551181" y="218.976009" transform="rotate(-0 344.551181 218.976009)">600</text>
     </g>
    </g>
    <g id="xtick_6">
     <g id="line2d_11">
      <path d="M 402.661417 206.929134
L 402.661417 56.692913
" clip-path="url(#p05f9c80c51)" style="fill: none; stroke: #e5e7eb; stroke-width: 0.35; stroke-linecap: square"/>
     </g>
     <g id="line2d_12">
      <g>
       <use xlink:href="#mac6590bbbe" x="402.661417" y="206.929134" style="fill: #333333; stroke: #333333; stroke-width: 0.75"/>
      </g>
     </g>
     <g id="text_6">
      <text style="font-size: 8px; font-family: 'Times New Roman', 'SimSun'; text-anchor: middle; fill: #333333" x="402.661417" y="218.976009" transform="rotate(-0 402.661417 218.976009)">700</text>
     </g>
    </g>
    <g id="xtick_7">
     <g id="line2d_13">
      <path d="M 460.771654 206.929134
L 460.771654 56.692913
" clip-path="url(#p05f9c80c51)" style="fill: none; stroke: #e5e7eb; stroke-width: 0.35; stroke-linecap: square"/>
     </g>
     <g id="line2d_14">
      <g>
       <use xlink:href="#mac6590bbbe" x="460.771654" y="206.929134" style="fill: #333333; stroke: #333333; stroke-width: 0.75"/>
      </g>
     </g>
     <g id="text_7">
      <text style="font-size: 8px; font-family: 'Times New Roman', 'SimSun'; text-anchor: middle; fill: #333333" x="460.771654" y="218.976009" transform="rotate(-0 460.771654 218.976009)">800</text>
     </g>
    </g>
    <g id="text_8">
     <text style="font-size: 9px; font-family: 'Times New Roman', 'SimSun'; text-anchor: middle; fill: #333333" x="280.629921" y="232.12054" transform="rotate(-0 280.629921 232.12054)">实际坚持时间（s）</text>
    </g>
   </g>
   <g id="matplotlib.axis_2">
    <g id="ytick_1">
     <g id="line2d_15">
      <defs>
       <path id="m22114a4de7" d="M 0 0
L -3 0
" style="stroke: #333333; stroke-width: 0.75"/>
      </defs>
      <g>
       <use xlink:href="#m22114a4de7" x="71.433071" y="83.205188" style="fill: #333333; stroke: #333333; stroke-width: 0.75"/>
      </g>
     </g>
     <g id="text_9">
      <text style="font-size: 8px; font-family: 'Times New Roman', 'SimSun'; text-anchor: end; fill: #333333" x="64.933071" y="85.978625" transform="rotate(-0 64.933071 85.978625)">v = 2</text>
     </g>
    </g>
    <g id="ytick_2">
     <g id="line2d_16">
      <g>
       <use xlink:href="#m22114a4de7" x="71.433071" y="127.392311" style="fill: #333333; stroke: #333333; stroke-width: 0.75"/>
      </g>
     </g>
     <g id="text_10">
      <text style="font-size: 8px; font-family: 'Times New Roman', 'SimSun'; text-anchor: end; fill: #333333" x="64.933071" y="130.165749" transform="rotate(-0 64.933071 130.165749)">v = 5</text>
     </g>
    </g>
    <g id="ytick_3">
     <g id="line2d_17">
      <g>
       <use xlink:href="#m22114a4de7" x="71.433071" y="171.579435" style="fill: #333333; stroke: #333333; stroke-width: 0.75"/>
      </g>
     </g>
     <g id="text_11">
      <text style="font-size: 8px; font-family: 'Times New Roman', 'SimSun'; text-anchor: end; fill: #333333" x="64.933071" y="174.352872" transform="rotate(-0 64.933071 174.352872)">v = 10</text>
     </g>
    </g>
    <g id="text_12">
     <text style="font-size: 9px; font-family: 'Times New Roman', 'SimSun'; text-anchor: middle; fill: #333333" x="38.479438" y="131.811024" transform="rotate(-90 38.479438 131.811024)">扫描速率（K/min）</text>
    </g>
   </g>
   <g id="line2d_18">
    <path d="M 452.006112 206.929134
L 452.006112 56.692913
" clip-path="url(#p05f9c80c51)" style="fill: none; stroke-dasharray: 0.9,1.485; stroke-dashoffset: 0; stroke: #777777; stroke-width: 0.9"/>
   </g>
   <g id="line2d_19">
    <path d="M 298.587488 83.205188
L 403.361086 83.205188
" clip-path="url(#p05f9c80c51)" style="fill: none; stroke: #0072b2; stroke-width: 2; stroke-linecap: square"/>
   </g>
   <g id="line2d_20">
    <path d="M 403.361086 83.205188
L 452.006112 83.205188
" clip-path="url(#p05f9c80c51)" style="fill: none; stroke-dasharray: 3.7,1.6; stroke-dashoffset: 0; stroke: #999999"/>
   </g>
   <g id="line2d_21">
    <path d="M 155.058583 127.392311
L 237.653197 127.392311
" clip-path="url(#p05f9c80c51)" style="fill: none; stroke: #d55e00; stroke-width: 2; stroke-linecap: square"/>
   </g>
   <g id="line2d_22">
    <path d="M 237.653197 127.392311
L 452.006112 127.392311
" clip-path="url(#p05f9c80c51)" style="fill: none; stroke-dasharray: 3.7,1.6; stroke-dashoffset: 0; stroke: #999999"/>
   </g>
   <g id="line2d_23">
    <path d="M 107.253581 171.579435
L 182.45911 171.579435
" clip-path="url(#p05f9c80c51)" style="fill: none; stroke: #009e73; stroke-width: 2; stroke-linecap: square"/>
   </g>
   <g id="line2d_24">
    <path d="M 182.45911 171.579435
L 452.006112 171.579435
" clip-path="url(#p05f9c80c51)" style="fill: none; stroke-dasharray: 3.7,1.6; stroke-dashoffset: 0; stroke: #999999"/>
   </g>
   <g id="patch_3">
    <path d="M 71.433071 206.929134
L 71.433071 56.692913
" style="fill: none; stroke: #777777; stroke-width: 0.75; stroke-linejoin: miter; stroke-linecap: square"/>
   </g>
   <g id="patch_4">
    <path d="M 71.433071 206.929134
L 489.826772 206.929134
" style="fill: none; stroke: #777777; stroke-width: 0.75; stroke-linejoin: miter; stroke-linecap: square"/>
   </g>
   <g id="PathCollection_1">
    <defs>
     <path id="m990afcf270" d="M 0 2.738613
C 0.726289 2.738613 1.422928 2.450055 1.936492 1.936492
C 2.450055 1.422928 2.738613 0.726289 2.738613 0
C 2.738613 -0.726289 2.450055 -1.422928 1.936492 -1.936492
C 1.422928 -2.450055 0.726289 -2.738613 0 -2.738613
C -0.726289 -2.738613 -1.422928 -2.450055 -1.936492 -1.936492
C -2.450055 -1.422928 -2.738613 -0.726289 -2.738613 0
C -2.738613 0.726289 -2.450055 1.422928 -1.936492 1.936492
C -1.422928 2.450055 -0.726289 2.738613 0 2.738613
z
" style="stroke: #0072b2"/>
    </defs>
    <g clip-path="url(#p05f9c80c51)">
     <use xlink:href="#m990afcf270" x="298.587488" y="83.205188" style="fill: #ffffff; stroke: #0072b2"/>
    </g>
   </g>
   <g id="PathCollection_2">
    <defs>
     <path id="ma01b380a85" d="M 0 3.605551
L 3.605551 0
L 0 -3.605551
L -3.605551 0
z
" style="stroke: #777777"/>
    </defs>
    <g clip-path="url(#p05f9c80c51)">
     <use xlink:href="#ma01b380a85" x="452.006112" y="83.205188" style="fill: #777777; stroke: #777777"/>
    </g>
   </g>
   <g id="text_13">
    <text style="font-size: 8.5px; font-family: 'Times New Roman', 'SimSun'; text-anchor: middle; fill: #333333" x="298.587488" y="99.205188" transform="rotate(-0 298.587488 99.205188)">520.90</text>
   </g>
   <g id="text_14">
    <text style="font-size: 8.5px; font-family: 'Times New Roman', 'SimSun'; text-anchor: middle; fill: #333333" x="403.361086" y="99.205188" transform="rotate(-0 403.361086 99.205188)">701.20</text>
   </g>
   <g id="text_15">
    <text style="font-size: 8.5px; font-family: 'Times New Roman', 'SimSun'; text-anchor: middle; fill: #0072b2" x="350.974287" y="71.205188" transform="rotate(-0 350.974287 71.205188)">恢复 180.30 s</text>
   </g>
   <g id="text_16">
    <text style="font-size: 8.5px; font-family: 'Times New Roman', 'SimSun'; text-anchor: middle; fill: #666666" x="427.683599" y="71.205188" transform="rotate(-0 427.683599 71.205188)">余量 83.71 s</text>
   </g>
   <g id="PathCollection_3">
    <defs>
     <path id="me4f21f55ce" d="M -2.738613 2.738613
L 2.738613 2.738613
L 2.738613 -2.738613
L -2.738613 -2.738613
z
" style="stroke: #d55e00"/>
    </defs>
    <g clip-path="url(#p05f9c80c51)">
     <use xlink:href="#me4f21f55ce" x="155.058583" y="127.392311" style="fill: #ffffff; stroke: #d55e00"/>
    </g>
   </g>
   <g id="PathCollection_4">
    <g clip-path="url(#p05f9c80c51)">
     <use xlink:href="#ma01b380a85" x="452.006112" y="127.392311" style="fill: #777777; stroke: #777777"/>
    </g>
   </g>
   <g id="text_17">
    <text style="font-size: 8.5px; font-family: 'Times New Roman', 'SimSun'; text-anchor: middle; fill: #333333" x="155.058583" y="143.392311" transform="rotate(-0 155.058583 143.392311)">273.91</text>
   </g>
   <g id="text_18">
    <text style="font-size: 8.5px; font-family: 'Times New Roman', 'SimSun'; text-anchor: middle; fill: #333333" x="237.653197" y="143.392311" transform="rotate(-0 237.653197 143.392311)">416.04</text>
   </g>
   <g id="text_19">
    <text style="font-size: 8.5px; font-family: 'Times New Roman', 'SimSun'; text-anchor: middle; fill: #d55e00" x="196.35589" y="115.392311" transform="rotate(-0 196.35589 115.392311)">恢复 142.13 s</text>
   </g>
   <g id="text_20">
    <text style="font-size: 8.5px; font-family: 'Times New Roman', 'SimSun'; text-anchor: middle; fill: #666666" x="344.829654" y="115.392311" transform="rotate(-0 344.829654 115.392311)">余量 368.87 s</text>
   </g>
   <g id="PathCollection_5">
    <defs>
     <path id="mb6e0a3c1d5" d="M 0 -2.738613
L -2.738613 2.738613
L 2.738613 2.738613
z
" style="stroke: #009e73"/>
    </defs>
    <g clip-path="url(#p05f9c80c51)">
     <use xlink:href="#mb6e0a3c1d5" x="107.253581" y="171.579435" style="fill: #ffffff; stroke: #009e73"/>
    </g>
   </g>
   <g id="PathCollection_6">
    <g clip-path="url(#p05f9c80c51)">
     <use xlink:href="#ma01b380a85" x="452.006112" y="171.579435" style="fill: #777777; stroke: #777777"/>
    </g>
   </g>
   <g id="text_21">
    <text style="font-size: 8.5px; font-family: 'Times New Roman', 'SimSun'; text-anchor: middle; fill: #333333" x="107.253581" y="187.579435" transform="rotate(-0 107.253581 187.579435)">191.64</text>
   </g>
   <g id="text_22">
    <text style="font-size: 8.5px; font-family: 'Times New Roman', 'SimSun'; text-anchor: middle; fill: #333333" x="182.45911" y="187.579435" transform="rotate(-0 182.45911 187.579435)">321.06</text>
   </g>
   <g id="text_23">
    <text style="font-size: 8.5px; font-family: 'Times New Roman', 'SimSun'; text-anchor: middle; fill: #009e73" x="144.856346" y="159.579435" transform="rotate(-0 144.856346 159.579435)">恢复 129.42 s</text>
   </g>
   <g id="text_24">
    <text style="font-size: 8.5px; font-family: 'Times New Roman', 'SimSun'; text-anchor: middle; fill: #666666" x="317.232611" y="159.579435" transform="rotate(-0 317.232611 159.579435)">余量 463.85 s</text>
   </g>
   <g id="PathCollection_7">
    <defs>
     <path id="mf71d8d7437" d="M 0 -4.330127
L -0.972174 -1.338083
L -4.118196 -1.338083
L -1.573011 0.511102
L -2.545185 3.503146
L -0 1.653961
L 2.545185 3.503146
L 1.573011 0.511102
L 4.118196 -1.338083
L 0.972174 -1.338083
z
" style="stroke: #0072b2"/>
    </defs>
    <g clip-path="url(#p05f9c80c51)">
     <use xlink:href="#mf71d8d7437" x="403.361086" y="83.205188" style="fill: #0072b2; stroke: #0072b2"/>
    </g>
   </g>
   <g id="PathCollection_8">
    <defs>
     <path id="mf30ef42996" d="M 0 -4.330127
L -0.972174 -1.338083
L -4.118196 -1.338083
L -1.573011 0.511102
L -2.545185 3.503146
L -0 1.653961
L 2.545185 3.503146
L 1.573011 0.511102
L 4.118196 -1.338083
L 0.972174 -1.338083
z
" style="stroke: #d55e00"/>
    </defs>
    <g clip-path="url(#p05f9c80c51)">
     <use xlink:href="#mf30ef42996" x="237.653197" y="127.392311" style="fill: #d55e00; stroke: #d55e00"/>
    </g>
   </g>
   <g id="PathCollection_9">
    <defs>
     <path id="m16e46b4de7" d="M 0 -4.330127
L -0.972174 -1.338083
L -4.118196 -1.338083
L -1.573011 0.511102
L -2.545185 3.503146
L -0 1.653961
L 2.545185 3.503146
L 1.573011 0.511102
L 4.118196 -1.338083
L 0.972174 -1.338083
z
" style="stroke: #009e73"/>
    </defs>
    <g clip-path="url(#p05f9c80c51)">
     <use xlink:href="#m16e46b4de7" x="182.45911" y="171.579435" style="fill: #009e73; stroke: #009e73"/>
    </g>
   </g>
  </g>
  <g id="text_25">
   <text style="font-size: 8px; font-family: 'Times New Roman', 'SimSun'; fill: #555555" transform="translate(40.818898 261.697604)">Q4 达标值与同速率 Q3 目标在此尺度重合，毫秒差见达标边界图。</text>
   <text style="font-size: 8px; font-family: 'Times New Roman', 'SimSun'; fill: #555555" transform="translate(40.818898 271.217135)">实际时间取热安全时间与负重上限的较小值；余量不等于已实现收益。</text>
  </g>
  <g id="text_26">
   <text style="font-size: 8px; font-family: 'Times New Roman', 'SimSun'; text-anchor: end; fill: #777777" x="500.031496" y="11.696112" transform="rotate(-0 500.031496 11.696112)">DRAFT · 15 ℃目标</text>
  </g>
  <g id="legend_1">
   <g id="line2d_25">
    <defs>
     <path id="mc268777d99" d="M 0 3
C 0.795609 3 1.55874 2.683901 2.12132 2.12132
C 2.683901 1.55874 3 0.795609 3 0
C 3 -0.795609 2.683901 -1.55874 2.12132 -2.12132
C 1.55874 -2.683901 0.795609 -3 0 -3
C -0.795609 -3 -1.55874 -2.683901 -2.12132 -2.12132
C -2.683901 -1.55874 -3 -0.795609 -3 0
C -3 0.795609 -2.683901 1.55874 -2.12132 2.12132
C -1.55874 2.683901 -0.795609 3 0 3
z
" style="stroke: #555555"/>
    </defs>
    <g>
     <use xlink:href="#mc268777d99" x="66.223622" y="30.83627" style="fill: #ffffff; stroke: #555555"/>
    </g>
   </g>
   <g id="text_27">
    <text style="font-size: 8px; font-family: 'Times New Roman', 'SimSun'; text-anchor: start; fill: #333333" x="80.623622" y="33.63627" transform="rotate(-0 80.623622 33.63627)">原始方案</text>
   </g>
   <g id="line2d_26">
    <defs>
     <path id="m448a897ce7" d="M 0 -4
L -0.898056 -1.236068
L -3.804226 -1.236068
L -1.453085 0.472136
L -2.351141 3.236068
L -0 1.527864
L 2.351141 3.236068
L 1.453085 0.472136
L 3.804226 -1.236068
L 0.898056 -1.236068
z
" style="stroke: #555555; stroke-linejoin: bevel"/>
    </defs>
    <g>
     <use xlink:href="#m448a897ce7" x="136.623622" y="30.83627" style="fill: #555555; stroke: #555555; stroke-linejoin: bevel"/>
    </g>
   </g>
   <g id="text_28">
    <text style="font-size: 8px; font-family: 'Times New Roman', 'SimSun'; text-anchor: start; fill: #333333" x="151.023622" y="33.63627" transform="rotate(-0 151.023622 33.63627)">Q4 达标值</text>
   </g>
   <g id="line2d_27">
    <defs>
     <path id="m7ac6bd5b10" d="M 0 4.242641
L 4.242641 0
L 0 -4.242641
L -4.242641 0
z
" style="stroke: #777777; stroke-linejoin: miter"/>
    </defs>
    <g>
     <use xlink:href="#m7ac6bd5b10" x="210.801122" y="30.83627" style="fill: #777777; stroke: #777777; stroke-linejoin: miter"/>
    </g>
   </g>
   <g id="text_29">
    <text style="font-size: 8px; font-family: 'Times New Roman', 'SimSun'; text-anchor: start; fill: #333333" x="225.201122" y="33.63627" transform="rotate(-0 225.201122 33.63627)">负重上限 784.92 s</text>
   </g>
  </g>
 </g>
 <defs>
  <clipPath id="p05f9c80c51">
   <rect x="71.433071" y="56.692913" width="418.393701" height="150.23622"/>
  </clipPath>
 </defs>
</svg>
